<svg id="color" enable-background="new 0 0 24 24" height="512" viewBox="0 0 24 24" width="512" xmlns="http://www.w3.org/2000/svg"><path d="m20.076 9.224-.65-2.419c-.044-.164-.03-.34.038-.496l1.931-4.395c.275-.628 1.223-.592 1.411.107l1.101 4.105c.392 1.466-.481 2.977-1.945 3.368l-.966.259c-.398.107-.81-.127-.92-.529z" fill="#607d8b"/><path d="m21.345 2.027-1.881 4.282c-.068.156-.082.332-.038.496l.65 2.419c.092.337.395.556.725.556.064 0 .129-.008.194-.026l.966-.259c.521-.139.968-.421 1.309-.792z" fill="#546d79"/><path d="m12.018 18.739-.94-3.41c-.11-.399.124-.813.523-.922.399-.111.812.124.922.523l.94 3.41c.11.399-.124.813-.523.922-.396.111-.811-.12-.922-.523z" fill="#90a4ae"/><path d="m8.417 15.003-.259-.966c-.107-.4.131-.812.53-.919l4.829-1.294c.407-.108.813.132.919.53l.259.966c.25.932-.305 1.894-1.236 2.145l-2.898.776c-.945.25-1.897-.314-2.144-1.238z" fill="#607d8b"/><path d="m6.432 14.68c-1.098 0-2.109-.734-2.414-1.848l-.753-2.839c-.122-.281.041-.62.357-.683l7.218-1.936c.129-.033.266-.017.38.051l1.044.604 7.936-2.126c.283-.123.604.031.688.334l.01.049.765 2.845c.212.811-.254 1.618-1.059 1.842l-13.525 3.621c-.216.057-.433.086-.647.086z" fill="#64b5f6"/><path d="m2.728 8c-.364-1.334.421-2.711 1.765-3.063l18.347-4.92c.413-.106.754.305.588.685l-2.541 5.794c-.045.167-.175.306-.354.354l-8.211 2.199c-.127.032-.265.017-.379-.051l-1.044-.603-7.521 2.03z" fill="#2196f3"/><path d="m12.114 15.825-.838.225.742 2.69c.093.335.395.551.722.551.066 0 .133-.009.2-.027.005-.001.01-.003.016-.004z" fill="#7d8f97"/><path d="m11.521 13.404-3.296.883.192.716c.207.775.911 1.298 1.691 1.298.149 0 .301-.019.453-.059l.715-.192.838-.225z" fill="#546d79"/><path d="m3.229 9.866c.005.039.016.078.031.116zm7.103-1.318-6.953 1.877.639 2.407c.305 1.113 1.316 1.848 2.414 1.848.215 0 .432-.028.647-.086l1.146-.307 3.296-.883z" fill="#579ed6"/><path d="m9.142 3.69-4.649 1.247c-1.344.352-2.129 1.729-1.765 3.063l.501 1.866.031.116.119.443 6.953-1.877z" fill="#1d83d4"/><path d="m12.01 20.25h-8.51c-.414 0-.75-.336-.75-.75s.336-.75.75-.75h8.51c.414 0 .75.336.75.75s-.336.75-.75.75z" fill="#90a4ae"/><path d="m2.25 24h-1.5c-.414 0-.75-.336-.75-.75v-7.5c0-.414.336-.75.75-.75h1.5c.965 0 1.75.785 1.75 1.75v5.5c0 .965-.785 1.75-1.75 1.75z" fill="#607d8b"/><path d="m14.5 19.5c0 .828-.672 1.5-1.5 1.5s-1.5-.672-1.5-1.5.672-1.5 1.5-1.5 1.5.672 1.5 1.5z" fill="#607d8b"/><path d="m11.5 19.5h-7.5v.75h7.701c-.128-.221-.201-.477-.201-.75z" fill="#7d8f97"/><g fill="#546d79"><path d="m4 19.5h-4v3.75c0 .414.336.75.75.75h1.5c.965 0 1.75-.785 1.75-1.75v-2z"/><path d="m14.5 19.5h-3c0 .273.073.529.201.75.259.448.744.75 1.299.75.828 0 1.5-.672 1.5-1.5z"/></g></svg>