<svg id="color" enable-background="new 0 0 24 24" height="512" viewBox="0 0 24 24" width="512" xmlns="http://www.w3.org/2000/svg"><path d="m15 14h-2v-2.25h-2v2.25h-2c-.552 0-1 .448-1 1s.448 1 1 1h6c.552 0 1-.448 1-1s-.448-1-1-1z" fill="#90a4ae"/><path d="m12 11.75h-1v2.25h1z" fill="#7d8f97"/><path d="m12 20.25c-.414 0-.75-.336-.75-.75v-4.25c0-.414.336-.75.75-.75s.75.336.75.75v4.25c0 .414-.336.75-.75.75z" fill="#90a4ae"/><path d="m16 15h-8c0 .552.448 1 1 1h6c.552 0 1-.448 1-1z" fill="#7d8f97"/><path d="m19.25 12.5h-14.5c-.965 0-1.75-.785-1.75-1.75v-9c0-.965.785-1.75 1.75-1.75h14.5c.965 0 1.75.785 1.75 1.75v9c0 .965-.785 1.75-1.75 1.75z" fill="#607d8b"/><path d="m18.5 10.5h-13c-.276 0-.5-.224-.5-.5v-7.5c0-.276.224-.5.5-.5h13c.276 0 .5.224.5.5v7.5c0 .276-.224.5-.5.5z" fill="#fff"/><path d="m12 0h-7.25c-.965 0-1.75.785-1.75 1.75v9c0 .965.785 1.75 1.75 1.75h7.25v-2h-6.5c-.276 0-.5-.224-.5-.5v-7.5c0-.276.224-.5.5-.5h6.5z" fill="#546d79"/><path d="m12 2h-6.5c-.276 0-.5.224-.5.5v7.5c0 .276.224.5.5.5h6.5z" fill="#dedede"/><path d="m10.25 22.25h-6.5c-.414 0-.75-.336-.75-.75s.336-.75.75-.75h6.5c.414 0 .75.336.75.75s-.336.75-.75.75z" fill="#90a4ae"/><path d="m20.25 22.25h-6.5c-.414 0-.75-.336-.75-.75s.336-.75.75-.75h6.5c.414 0 .75.336.75.75s-.336.75-.75.75z" fill="#90a4ae"/><path d="m11 21.5h-8c0 .414.336.75.75.75h6.5c.414 0 .75-.336.75-.75z" fill="#7d8f97"/><path d="m21 21.5h-8c0 .414.336.75.75.75h6.5c.414 0 .75-.336.75-.75z" fill="#7d8f97"/><path d="m13.75 24h-3.5c-.414 0-.75-.336-.75-.75v-3.5c0-.414.336-.75.75-.75h3.5c.414 0 .75.336.75.75v3.5c0 .414-.336.75-.75.75z" fill="#2196f3"/><path d="m12 15.875h-.75v3.125h.75z" fill="#7d8f97"/><path d="m12 19h-1.75c-.414 0-.75.336-.75.75v3.5c0 .414.336.75.75.75h1.75z" fill="#1d83d4"/></svg>