<svg id="color" enable-background="new 0 0 24 24" height="512" viewBox="0 0 24 24" width="512" xmlns="http://www.w3.org/2000/svg"><g fill="#607d8b"><path d="m12 21.25c-.414 0-.75-.336-.75-.75v-2.75c0-.414.336-.75.75-.75s.75.336.75.75v2.75c0 .414-.336.75-.75.75z"/><path d="m10.5 22.75h-6.75c-.414 0-.75-.336-.75-.75s.336-.75.75-.75h6.75c.414 0 .75.336.75.75s-.336.75-.75.75z"/><path d="m20.25 22.75h-6.75c-.414 0-.75-.336-.75-.75s.336-.75.75-.75h6.75c.414 0 .75.336.75.75s-.336.75-.75.75z"/></g><path d="m17.25 18h-10.5c-.965 0-1.75-.785-1.75-1.75v-4.75h-1.75c-.689 0-1.25-.561-1.25-1.25 0-.333.129-.646.363-.881l9.105-9.148c.141-.141.333-.221.532-.221s.391.08.532.221l2.468 2.482v-.953c0-.414.336-.75.75-.75h2.5c.414 0 .75.336.75.75v4.971l2.57 2.589.066.059c.235.235.364.548.364.881 0 .689-.561 1.25-1.25 1.25h-1.75v4.75c0 .965-.785 1.75-1.75 1.75z" fill="#cfd8dc"/><path d="m13.25 24h-2.5c-.414 0-.75-.336-.75-.75v-2.5c0-.414.336-.75.75-.75h2.5c.414 0 .75.336.75.75v2.5c0 .414-.336.75-.75.75z" fill="#2196f3"/><path d="m12 18h-.75v2h.75z" fill="#546d79"/><path d="m10 21.25h-6.25c-.414 0-.75.336-.75.75s.336.75.75.75h6.25z" fill="#546d79"/><path d="m12 0c-.199 0-.391.08-.531.221l-9.106 9.148c-.234.235-.363.548-.363.881 0 .689.561 1.25 1.25 1.25h1.75v4.75c0 .965.785 1.75 1.75 1.75h4.5.75z" fill="#b4bcc0"/><path d="m12 20h-.75-.5c-.414 0-.75.336-.75.75v.5 1.5.5c0 .414.336.75.75.75h1.25z" fill="#1d83d4"/></svg>