<svg id="color" enable-background="new 0 0 24 24" height="512" viewBox="0 0 24 24" width="512" xmlns="http://www.w3.org/2000/svg"><path d="m19 24h-14c-1.103 0-2-.897-2-2v-9h-2c-.561 0-1-.439-1-1 0-.265.108-.525.296-.713l11.354-11.144c.194-.19.505-.19.701 0l3.649 3.585v-2.228c0-.276.224-.5.5-.5h4c.276 0 .5.224.5.5v7.13l2.701 2.653c.191.192.299.452.299.717 0 .561-.439 1-1 1h-2v9c0 1.103-.897 2-2 2z" fill="#cfd8dc"/><path d="m12 7c-2.76 0-5 2.24-5 5 0 1.36.54 2.64 1.51 3.58.271.26.44.58.47.92h6.04c.03-.34.2-.66.47-.92.97-.94 1.51-2.22 1.51-3.58 0-2.76-2.24-5-5-5z" fill="#ffc107"/><path d="m8.98 16.5c.033.098.02.896.02 1 0 1.38 1.12 2.5 2.5 2.5h1c1.38 0 2.5-1.12 2.5-2.5 0-.104-.013-.902.02-1z" fill="#607d8b"/><path d="m12 0c-.126 0-.253.048-.35.143l-11.354 11.144c-.188.188-.296.448-.296.713 0 .561.439 1 1 1h2v9c0 1.103.897 2 2 2h7v-4h-.5c-1.38 0-2.5-1.12-2.5-2.5 0-.104.013-.902-.02-1-.03-.34-.2-.66-.47-.92-.97-.94-1.51-2.22-1.51-3.58 0-2.76 2.24-5 5-5z" fill="#b4bcc0"/><path d="m12 7c-2.76 0-5 2.24-5 5 0 1.36.54 2.64 1.51 3.58.271.26.44.58.47.92h3.02z" fill="#dea806"/><path d="m12 16.5h-3.02c.033.098.02.896.02 1 0 1.38 1.12 2.5 2.5 2.5h.5z" fill="#546d79"/></svg>