<svg id="color" enable-background="new 0 0 24 24" height="512" viewBox="0 0 24 24" width="512" xmlns="http://www.w3.org/2000/svg"><path d="m18.5 8h-15c-1.933 0-3.5-1.567-3.5-3.5 0-1.933 1.567-3.5 3.5-3.5h15c1.933 0 3.5 1.567 3.5 3.5 0 1.933-1.567 3.5-3.5 3.5z" fill="#cfd8dc"/><path d="m18.5 15h-15c-1.933 0-3.5-1.567-3.5-3.5 0-1.933 1.567-3.5 3.5-3.5h15c1.933 0 3.5 1.567 3.5 3.5 0 1.933-1.567 3.5-3.5 3.5z" fill="#90a4ae"/><path d="m18.5 22h-15c-1.933 0-3.5-1.567-3.5-3.5 0-1.933 1.567-3.5 3.5-3.5h15c1.933 0 3.5 1.567 3.5 3.5 0 1.933-1.567 3.5-3.5 3.5z" fill="#cfd8dc"/><path d="m11 1h-7.5c-1.933 0-3.5 1.567-3.5 3.5s1.567 3.5 3.5 3.5h7.5z" fill="#b4bcc0"/><path d="m11 8h-7.5c-1.933 0-3.5 1.567-3.5 3.5s1.567 3.5 3.5 3.5h7.5z" fill="#7d8f97"/><path d="m11 15h-7.5c-1.933 0-3.5 1.567-3.5 3.5s1.567 3.5 3.5 3.5h7.5z" fill="#b4bcc0"/><g fill="#fafafa"><circle cx="3.5" cy="4.5" r="1"/><circle cx="8.5" cy="4.5" r="1"/><circle cx="3.5" cy="11.5" r="1"/><circle cx="8.5" cy="11.5" r="1"/><circle cx="3.5" cy="18.5" r="1"/><circle cx="8.5" cy="18.5" r="1"/></g><path d="m4.5 4.5h-2c0 .553.448 1 1 1s1-.447 1-1z" fill="#dadada"/><path d="m9.5 4.5h-2c0 .553.448 1 1 1s1-.447 1-1z" fill="#dadada"/><path d="m4.5 11.5h-2c0 .553.448 1 1 1s1-.447 1-1z" fill="#dadada"/><path d="m9.5 11.5h-2c0 .553.448 1 1 1s1-.447 1-1z" fill="#dadada"/><path d="m4.5 18.5h-2c0 .553.448 1 1 1s1-.447 1-1z" fill="#dadada"/><path d="m9.5 18.5h-2c0 .553.448 1 1 1s1-.447 1-1z" fill="#dadada"/><path d="m19.516 21.309-1.172-.938 2.14-2.68 1.172.938z" fill="#ffc107"/><path d="m16.336 22.002-3.34-1.66.668-1.344 3.34 1.66z" fill="#ffc107"/><path d="m21.071 18.161-2.142 2.678.587.47 2.14-2.68z" fill="#dea806"/><path d="m13.332 19.666-.336.676 3.34 1.66.332-.668z" fill="#dea806"/><path d="m22 19c-1.103 0-2-.896-2-2s.897-2 2-2 2 .896 2 2-.897 2-2 2z" fill="#607d8b"/><path d="m18 24c-1.102 0-2-.896-2-2s.898-2 2-2c1.103 0 2 .896 2 2s-.897 2-2 2z" fill="#607d8b"/><path d="m12 21c-1.102 0-2-.896-2-2s.898-2 2-2c1.103 0 2 .896 2 2s-.897 2-2 2z" fill="#607d8b"/><path d="m12 17c-1.102 0-2 .896-2 2s.898 2 2 2z" fill="#546d79"/><path d="m18 20c-1.102 0-2 .896-2 2s.898 2 2 2z" fill="#546d79"/><path d="m22 15c-1.103 0-2 .896-2 2s.897 2 2 2z" fill="#546d79"/></svg>